<?xml version="1.0" encoding="UTF-8"?><svg xmlns="http://www.w3.org/2000/svg" viewBox="0 0 561.72 294.71"><defs><style>.d{fill:#f16a23;}.e{fill:#231f20;}.f{fill:#3371b7;}</style></defs><g id="a"/><g id="b"><g id="c"><g><g><polygon class="f" points="18.95 151.27 0 196.96 38.23 159.35 18.95 151.27"/><polygon class="f" points="61.75 216.6 61.78 216.53 8.49 216.53 53.48 235.2 61.27 216.6 61.75 216.6"/><polygon class="f" points="38.23 135.36 .2 97.95 19.01 143.42 38.23 135.36"/><polygon class="f" points="97.95 294.52 143.42 275.71 135.36 256.49 97.95 294.52"/><polygon class="f" points="78.11 233.44 59.47 241.25 78.18 286.5 78.18 232.93 78.11 232.96 78.11 233.44"/><polygon class="f" points="61.75 78.11 61.27 78.11 53.46 59.47 8.21 78.18 61.78 78.18 61.75 78.11"/><polygon class="f" points="196.77 .2 151.29 19.01 159.35 38.23 196.77 .2"/><polygon class="f" points="78.11 61.27 78.11 61.75 78.18 61.78 78.18 8.49 59.52 53.48 78.11 61.27"/><polygon class="f" points="216.6 61.27 235.25 53.46 216.53 8.21 216.53 61.78 216.6 61.75 216.6 61.27"/><polygon class="f" points="232.96 78.11 232.93 78.18 286.22 78.18 241.23 59.52 233.44 78.11 232.96 78.11"/><polygon class="f" points="151.27 275.76 196.96 294.71 159.35 256.49 151.27 275.76"/><polygon class="f" points="135.36 38.23 143.45 18.95 97.75 0 135.36 38.23"/><polygon class="f" points="216.6 232.96 216.53 232.93 216.53 286.22 235.2 241.23 216.6 233.44 216.6 232.96"/><polygon class="f" points="232.96 216.6 233.44 216.6 241.25 235.25 286.5 216.53 232.93 216.53 232.96 216.6"/></g><g><polygon class="d" points="65.74 184.12 65.72 218.59 80.3 184.18 65.74 184.12"/><polygon class="d" points="110.71 214.77 110.71 214.71 76.4 228.92 110.35 228.94 110.4 214.89 110.71 214.77"/><polygon class="d" points="73.9 168.73 39.44 154.79 63.68 179.05 73.9 168.73"/><polygon class="d" points="154.79 255.27 179.05 231.04 168.73 220.81 154.79 255.27"/><polygon class="d" points="125.73 221.24 115.81 231.24 139.93 255.38 125.64 220.89 125.6 220.93 125.73 221.24"/><polygon class="d" points="73.78 125.6 73.47 125.73 63.47 115.81 39.33 139.93 73.82 125.64 73.78 125.6"/><polygon class="d" points="139.92 39.44 115.66 63.68 125.98 73.9 139.92 39.44"/><polygon class="d" points="79.82 110.4 79.95 110.71 80 110.71 65.79 76.4 65.77 110.35 79.82 110.4"/><polygon class="d" points="168.98 73.47 178.9 63.47 154.79 39.33 169.07 73.82 169.11 73.78 168.98 73.47"/><polygon class="d" points="184 79.95 184 80 218.31 65.79 184.37 65.77 184.31 79.82 184 79.95"/><polygon class="d" points="184.12 228.98 218.59 229 184.18 214.41 184.12 228.98"/><polygon class="d" points="110.53 80.3 110.6 65.74 76.13 65.72 110.53 80.3"/></g><g><path class="e" d="M118.98,146.66l29.5-31.87c2.08-2.22,1.18-4.15-1.92-4.15h-11.87c-1.77,0-2.97,.6-4.15,1.93l-25.65,29.05h-.29l7.35-52.81c.45-2.37-.74-3.71-3.11-3.71h-9.33c-2.08,0-3.26,1.04-3.56,3.11l-13.58,92.39c-.45,2.37,.74,3.71,3.11,3.71h9.33c2.08,0,3.27-1.04,3.56-3.11l5.05-31.58,18.08,32.32c.89,1.63,2.22,2.37,4.01,2.37h11.56c2.67,0,3.71-1.78,2.22-4.15l-20.31-33.5Z"/><path class="e" d="M197.05,124.28l3.85-6.22c1.18-1.93,.89-3.56-.89-4.74-4.3-2.82-10.22-4.45-17.04-4.45-16.45,0-25.65,9.04-28.61,27.27l-6.96,44.47c-.45,2.37,.74,3.71,3.11,3.71h9.33c2.08,0,3.26-1.04,3.56-3.11l7.11-44.91c1.48-9.05,5.78-13.49,13.35-13.49,3.11,0,5.78,.74,8.45,2.37,1.93,1.18,3.4,1.04,4.74-.89Z"/><path class="e" d="M261.34,110.64h-9.34c-2.08,0-3.26,1.04-3.56,3.11l-6.52,40.77c-1.63,9.93-6.23,14.97-14.23,14.97-6.96,0-10.53-3.27-10.53-10.38,0-1.33,.14-2.81,.45-4.44l6.37-40.33c.45-2.37-.74-3.71-3.11-3.71h-9.34c-2.08,0-3.26,1.04-3.55,3.11l-6.53,41.36c-.45,2.37-.59,4.74-.59,6.82,0,13.78,7.71,21.5,21.94,21.5,6.23,0,11.26-1.64,15.11-5.19h.3l-.59,3.86c-1.48,9.04-6.82,13.78-15.86,13.78-5.64,0-10.68-1.48-14.98-5.04-1.63-1.48-3.26-1.48-4.74,.3l-4.59,6.08c-1.34,1.63-1.34,3.41,.29,4.74,5.64,5.04,14.23,7.86,24.31,7.86,17.65,0,28.91-9.64,31.58-26.54l10.83-68.93c.45-2.37-.75-3.71-3.11-3.71Z"/><path class="e" d="M323.84,114.49c-5.19-3.55-12.6-5.63-21.05-5.63-18.69,0-30.54,10.08-30.54,25.94,0,11.27,5.64,16.6,20.6,19.42,9.63,1.78,12.6,4,12.6,8.3,0,6.38-4.74,9.78-13.64,9.78-6.23,0-12.01-1.93-16.01-5.34-1.79-1.48-3.26-1.48-4.74,.3l-5.05,6.08c-1.33,1.64-1.33,3.41,.14,4.74,6.39,5.49,14.39,8.01,25.79,8.01,18.24,0,29.8-10.08,29.8-26.09,0-11.86-5.78-17.35-21.2-20.16-9.04-1.63-12.01-3.55-12.01-7.56,0-6.23,5.03-9.64,14.23-9.64,4.6,0,8.74,1.18,12.16,3.26,1.93,1.33,3.4,1.19,4.74-.59l4.6-5.93c1.33-1.78,1.33-3.56-.45-4.89Z"/><path class="e" d="M374.76,110.64h-17.65l3.13-21.82c.45-2.37-.74-3.71-3.11-3.71h-9.33c-2.08,0-3.27,1.04-3.56,3.11l-3.28,22.41h-6.37c-2.08,0-3.27,1.04-3.56,3.11l-1.18,7.12c-.45,2.37,.74,3.71,3.11,3.71h5.78l-5.64,35.87c-.3,2.08-.45,4.01-.45,5.78,0,12.9,8.3,19.87,23.13,19.87,4.6,0,8.59-.74,11.85-2.08,1.93-.89,2.38-2.37,1.93-4.45l-1.48-6.37c-.59-2.37-2.08-2.82-4.3-2.08-1.63,.59-3.56,1.04-5.64,1.04-6.07,0-9.19-2.82-9.19-8.3,0-.74,0-1.63,.14-2.52l5.78-36.77h18.38c2.08,0,3.26-1.04,3.56-3.11l1.04-7.12c.45-2.37-.75-3.71-3.11-3.71Z"/><path class="e" d="M412.63,108.86c-17.79,0-28.02,9.34-30.98,27.57l-3.1,19.72c-.45,2.52-.6,4.6-.6,6.52,0,15.41,10.24,23.42,28.46,23.42,8.16,0,15.87-2.67,22.39-7.86,1.63-1.33,1.77-2.96,.74-4.74l-3.71-5.93c-1.33-1.93-2.96-2.07-4.89-.59-4.01,3.41-8.3,5.19-13.34,5.19-8.9,0-13.19-3.41-13.19-11.56,0-1.48,.14-3.26,.43-5.04l.45-2.96h37.36c2.08,0,3.26-1.04,3.56-3.11l1.93-11.86c.29-2.08,.43-4.15,.43-5.93,0-14.53-9.33-22.83-25.94-22.83Zm9.93,29.35l-.29,2.23h-25.2l.29-2.08c1.79-10.53,6.37-15.56,14.98-15.56,7.11,0,10.67,3.41,10.67,10.52,0,1.48-.14,3.11-.45,4.89Z"/><path class="e" d="M469.36,85.11h-9.33c-2.08,0-3.26,1.04-3.56,3.11l-13.38,92.39c-.45,2.37,.74,3.71,3.11,3.71h9.33c2.08,0,3.27-1.04,3.56-3.11l13.38-92.39c.45-2.37-.74-3.71-3.11-3.71Z"/><path class="e" d="M494.91,104.02c5.62,0,10.22-4.15,10.22-10.23,0-5.34-3.56-8.9-9.04-8.9-5.78,0-10.08,4.3-10.08,10.38,0,5.18,3.56,8.75,8.9,8.75Z"/><path class="e" d="M497.85,110.64h-9.33c-2.08,0-3.26,1.04-3.56,3.11l-10.67,66.86c-.45,2.37,.74,3.71,3.11,3.71h9.33c2.08,0,3.27-1.04,3.56-3.11l10.67-66.86c.45-2.37-.74-3.71-3.11-3.71Z"/><path class="e" d="M539.28,122.65c4.6,0,8.74,1.18,12.16,3.26,1.93,1.33,3.4,1.19,4.74-.59l4.6-5.93c1.33-1.78,1.33-3.56-.45-4.89-5.19-3.55-12.6-5.63-21.05-5.63-18.69,0-30.54,10.08-30.54,25.94,0,11.27,5.64,16.6,20.6,19.42,9.63,1.78,12.6,4,12.6,8.3,0,6.38-4.74,9.78-13.64,9.78-6.23,0-12.01-1.93-16.01-5.34-1.79-1.48-3.26-1.48-4.74,.3l-5.05,6.08c-1.33,1.64-1.33,3.41,.14,4.74,6.39,5.49,14.39,8.01,25.79,8.01,18.24,0,29.8-10.08,29.8-26.09,0-11.86-5.78-17.35-21.2-20.16-9.04-1.63-12.01-3.55-12.01-7.56,0-6.23,5.03-9.64,14.23-9.64Z"/></g></g></g></g></svg>